<svg width="117" height="21" viewBox="0 0 117 21" fill="none" xmlns="http://www.w3.org/2000/svg">
<path d="M7.04 16.198C5.91067 16.198 4.84 16.0513 3.828 15.758C2.83067 15.45 2.01667 15.0393 1.386 14.526C1.04867 14.2767 0.88 13.9247 0.88 13.47C0.88 13.162 0.968 12.898 1.144 12.678C1.33467 12.4433 1.55467 12.326 1.804 12.326C2.068 12.326 2.36867 12.4287 2.706 12.634C3.33667 13.0887 3.99667 13.4187 4.686 13.624C5.37533 13.8293 6.138 13.932 6.974 13.932C8.04467 13.932 8.866 13.7487 9.438 13.382C10.01 13.0007 10.296 12.4507 10.296 11.732C10.296 11.1747 10.0247 10.7493 9.482 10.456C8.954 10.148 8.06667 9.85467 6.82 9.576C5.52933 9.29733 4.48067 8.97467 3.674 8.608C2.86733 8.24133 2.25867 7.772 1.848 7.2C1.43733 6.628 1.232 5.902 1.232 5.022C1.232 4.11267 1.48867 3.29867 2.002 2.58C2.51533 1.86133 3.22667 1.304 4.136 0.907999C5.06 0.497332 6.094 0.291999 7.238 0.291999C9.33533 0.291999 11.044 0.849333 12.364 1.964C12.5547 2.12533 12.6867 2.28667 12.76 2.448C12.848 2.59467 12.892 2.78533 12.892 3.02C12.892 3.328 12.7967 3.59933 12.606 3.834C12.43 4.054 12.2173 4.164 11.968 4.164C11.8213 4.164 11.682 4.142 11.55 4.098C11.4327 4.054 11.2713 3.97333 11.066 3.856C10.4647 3.416 9.878 3.09333 9.306 2.888C8.74867 2.668 8.05933 2.558 7.238 2.558C6.24067 2.558 5.44867 2.76333 4.862 3.174C4.29 3.57 4.004 4.12733 4.004 4.846C4.004 5.44733 4.26067 5.90933 4.774 6.232C5.28733 6.55467 6.16 6.85533 7.392 7.134C8.69733 7.42733 9.75333 7.75733 10.56 8.124C11.3813 8.476 12.0047 8.93067 12.43 9.488C12.87 10.0453 13.09 10.742 13.09 11.578C13.09 12.4873 12.8333 13.294 12.32 13.998C11.8213 14.6873 11.11 15.23 10.186 15.626C9.27667 16.0073 8.228 16.198 7.04 16.198ZM20.3653 16.176C19.2653 16.176 18.2973 15.9487 17.4613 15.494C16.64 15.0393 16.002 14.3867 15.5473 13.536C15.0926 12.6853 14.8653 11.6953 14.8653 10.566C14.8653 9.43667 15.0926 8.454 15.5473 7.618C16.002 6.76733 16.64 6.11467 17.4613 5.66C18.2973 5.20533 19.2653 4.978 20.3653 4.978C21.4653 4.978 22.426 5.20533 23.2473 5.66C24.0833 6.11467 24.7213 6.76733 25.1613 7.618C25.616 8.454 25.8433 9.43667 25.8433 10.566C25.8433 11.6953 25.616 12.6853 25.1613 13.536C24.7213 14.3867 24.0833 15.0393 23.2473 15.494C22.426 15.9487 21.4653 16.176 20.3653 16.176ZM20.3433 14.042C21.238 14.042 21.92 13.7487 22.3893 13.162C22.8586 12.5753 23.0933 11.71 23.0933 10.566C23.0933 9.43667 22.8586 8.57867 22.3893 7.992C21.92 7.39067 21.2453 7.09 20.3653 7.09C19.4853 7.09 18.8033 7.39067 18.3193 7.992C17.85 8.57867 17.6153 9.43667 17.6153 10.566C17.6153 11.71 17.85 12.5753 18.3193 13.162C18.7886 13.7487 19.4633 14.042 20.3433 14.042ZM40.8956 4.978C42.0689 4.978 42.9636 5.33 43.5796 6.034C44.2103 6.72333 44.5256 7.84533 44.5256 9.4V14.812C44.5256 15.2373 44.3936 15.5673 44.1296 15.802C43.8803 16.022 43.5503 16.132 43.1396 16.132C42.7436 16.132 42.4136 16.022 42.1496 15.802C41.9003 15.5673 41.7756 15.2373 41.7756 14.812V9.4C41.7756 8.59333 41.6289 8.02133 41.3356 7.684C41.0569 7.332 40.6243 7.156 40.0376 7.156C39.3189 7.156 38.7469 7.40533 38.3216 7.904C37.8963 8.388 37.6836 9.05533 37.6836 9.906V14.812C37.6836 15.2373 37.5516 15.5673 37.2876 15.802C37.0383 16.022 36.7156 16.132 36.3196 16.132C35.9236 16.132 35.5936 16.022 35.3296 15.802C35.0656 15.5673 34.9336 15.2373 34.9336 14.812V9.4C34.9336 8.59333 34.7869 8.02133 34.4936 7.684C34.2149 7.332 33.7823 7.156 33.1956 7.156C32.4769 7.156 31.9049 7.40533 31.4796 7.904C31.0689 8.388 30.8636 9.05533 30.8636 9.906V14.812C30.8636 15.2373 30.7316 15.5673 30.4676 15.802C30.2036 16.022 29.8736 16.132 29.4776 16.132C29.0816 16.132 28.7516 16.022 28.4876 15.802C28.2383 15.5673 28.1136 15.2373 28.1136 14.812V6.298C28.1136 5.88733 28.2456 5.572 28.5096 5.352C28.7736 5.132 29.1036 5.022 29.4996 5.022C29.8809 5.022 30.1889 5.132 30.4236 5.352C30.6729 5.55733 30.7976 5.858 30.7976 6.254V6.782C31.1349 6.19533 31.5823 5.748 32.1396 5.44C32.7116 5.132 33.3643 4.978 34.0976 4.978C35.7109 4.978 36.7889 5.65267 37.3316 7.002C37.6543 6.386 38.1309 5.89467 38.7616 5.528C39.3923 5.16133 40.1036 4.978 40.8956 4.978ZM55.8346 13.052C56.084 13.052 56.282 13.1473 56.4286 13.338C56.59 13.5287 56.6706 13.7853 56.6706 14.108C56.6706 14.5627 56.3993 14.944 55.8566 15.252C55.358 15.5307 54.7933 15.758 54.1626 15.934C53.532 16.0953 52.9306 16.176 52.3586 16.176C50.628 16.176 49.2566 15.6773 48.2446 14.68C47.2326 13.6827 46.7266 12.3187 46.7266 10.588C46.7266 9.488 46.9466 8.51267 47.3866 7.662C47.8266 6.81133 48.4426 6.15133 49.2346 5.682C50.0413 5.21267 50.9506 4.978 51.9626 4.978C52.9306 4.978 53.774 5.19067 54.4926 5.616C55.2113 6.04133 55.7686 6.64267 56.1646 7.42C56.5606 8.19733 56.7586 9.114 56.7586 10.17C56.7586 10.8007 56.48 11.116 55.9226 11.116H49.4326C49.5206 12.128 49.8066 12.876 50.2906 13.36C50.7746 13.8293 51.4786 14.064 52.4026 14.064C52.872 14.064 53.2826 14.0053 53.6346 13.888C54.0013 13.7707 54.412 13.6093 54.8666 13.404C55.3066 13.1693 55.6293 13.052 55.8346 13.052ZM52.0286 6.914C51.2806 6.914 50.6793 7.14867 50.2246 7.618C49.7846 8.08733 49.5206 8.762 49.4326 9.642H54.4046C54.3753 8.74733 54.1553 8.07267 53.7446 7.618C53.334 7.14867 52.762 6.914 52.0286 6.914ZM66.1801 16.198C64.6841 16.198 63.3715 15.8753 62.2421 15.23C61.1275 14.5847 60.2695 13.6607 59.6681 12.458C59.0668 11.2553 58.7661 9.84733 58.7661 8.234C58.7661 6.62067 59.0668 5.22 59.6681 4.032C60.2695 2.82933 61.1275 1.90533 62.2421 1.26C63.3715 0.614666 64.6841 0.291999 66.1801 0.291999C67.1481 0.291999 68.0575 0.438666 68.9081 0.732C69.7588 1.01067 70.5141 1.42133 71.1741 1.964C71.3648 2.11067 71.4968 2.26467 71.5701 2.426C71.6435 2.58733 71.6801 2.78533 71.6801 3.02C71.6801 3.34267 71.5921 3.614 71.4161 3.834C71.2401 4.054 71.0275 4.164 70.7781 4.164C70.4848 4.164 70.1841 4.06133 69.8761 3.856C69.2455 3.38667 68.6588 3.064 68.1161 2.888C67.5735 2.69733 66.9721 2.602 66.3121 2.602C64.7868 2.602 63.6281 3.07867 62.8361 4.032C62.0588 4.98533 61.6701 6.386 61.6701 8.234C61.6701 10.0967 62.0588 11.5047 62.8361 12.458C63.6281 13.4113 64.7868 13.888 66.3121 13.888C66.9428 13.888 67.5221 13.7927 68.0501 13.602C68.5928 13.4113 69.2015 13.0887 69.8761 12.634C70.0228 12.546 70.1695 12.4727 70.3161 12.414C70.4628 12.3553 70.6168 12.326 70.7781 12.326C71.0275 12.326 71.2401 12.436 71.4161 12.656C71.5921 12.876 71.6801 13.1473 71.6801 13.47C71.6801 13.69 71.6435 13.888 71.5701 14.064C71.4968 14.2253 71.3648 14.3793 71.1741 14.526C70.5141 15.0687 69.7588 15.4867 68.9081 15.78C68.0575 16.0587 67.1481 16.198 66.1801 16.198ZM78.6094 16.176C77.5094 16.176 76.5414 15.9487 75.7054 15.494C74.8841 15.0393 74.2461 14.3867 73.7914 13.536C73.3368 12.6853 73.1094 11.6953 73.1094 10.566C73.1094 9.43667 73.3368 8.454 73.7914 7.618C74.2461 6.76733 74.8841 6.11467 75.7054 5.66C76.5414 5.20533 77.5094 4.978 78.6094 4.978C79.7094 4.978 80.6701 5.20533 81.4914 5.66C82.3274 6.11467 82.9654 6.76733 83.4054 7.618C83.8601 8.454 84.0874 9.43667 84.0874 10.566C84.0874 11.6953 83.8601 12.6853 83.4054 13.536C82.9654 14.3867 82.3274 15.0393 81.4914 15.494C80.6701 15.9487 79.7094 16.176 78.6094 16.176ZM78.5874 14.042C79.4821 14.042 80.1641 13.7487 80.6334 13.162C81.1028 12.5753 81.3374 11.71 81.3374 10.566C81.3374 9.43667 81.1028 8.57867 80.6334 7.992C80.1641 7.39067 79.4894 7.09 78.6094 7.09C77.7294 7.09 77.0474 7.39067 76.5634 7.992C76.0941 8.57867 75.8594 9.43667 75.8594 10.566C75.8594 11.71 76.0941 12.5753 76.5634 13.162C77.0328 13.7487 77.7074 14.042 78.5874 14.042ZM99.1397 4.978C100.313 4.978 101.208 5.33 101.824 6.034C102.454 6.72333 102.77 7.84533 102.77 9.4V14.812C102.77 15.2373 102.638 15.5673 102.374 15.802C102.124 16.022 101.794 16.132 101.384 16.132C100.988 16.132 100.658 16.022 100.394 15.802C100.144 15.5673 100.02 15.2373 100.02 14.812V9.4C100.02 8.59333 99.8731 8.02133 99.5797 7.684C99.3011 7.332 98.8684 7.156 98.2817 7.156C97.5631 7.156 96.9911 7.40533 96.5657 7.904C96.1404 8.388 95.9277 9.05533 95.9277 9.906V14.812C95.9277 15.2373 95.7957 15.5673 95.5317 15.802C95.2824 16.022 94.9597 16.132 94.5637 16.132C94.1677 16.132 93.8377 16.022 93.5737 15.802C93.3097 15.5673 93.1777 15.2373 93.1777 14.812V9.4C93.1777 8.59333 93.0311 8.02133 92.7377 7.684C92.4591 7.332 92.0264 7.156 91.4397 7.156C90.7211 7.156 90.1491 7.40533 89.7237 7.904C89.3131 8.388 89.1077 9.05533 89.1077 9.906V14.812C89.1077 15.2373 88.9757 15.5673 88.7117 15.802C88.4477 16.022 88.1177 16.132 87.7217 16.132C87.3257 16.132 86.9957 16.022 86.7317 15.802C86.4824 15.5673 86.3577 15.2373 86.3577 14.812V6.298C86.3577 5.88733 86.4897 5.572 86.7537 5.352C87.0177 5.132 87.3477 5.022 87.7437 5.022C88.1251 5.022 88.4331 5.132 88.6677 5.352C88.9171 5.55733 89.0417 5.858 89.0417 6.254V6.782C89.3791 6.19533 89.8264 5.748 90.3837 5.44C90.9557 5.132 91.6084 4.978 92.3417 4.978C93.9551 4.978 95.0331 5.65267 95.5757 7.002C95.8984 6.386 96.3751 5.89467 97.0057 5.528C97.6364 5.16133 98.3477 4.978 99.1397 4.978ZM111.747 4.978C112.671 4.978 113.492 5.21267 114.211 5.682C114.944 6.15133 115.509 6.81867 115.905 7.684C116.315 8.53467 116.521 9.51733 116.521 10.632C116.521 11.7467 116.315 12.722 115.905 13.558C115.509 14.394 114.951 15.0393 114.233 15.494C113.514 15.9487 112.685 16.176 111.747 16.176C110.984 16.176 110.302 16.0147 109.701 15.692C109.099 15.3693 108.637 14.922 108.315 14.35V18.838C108.315 19.2193 108.19 19.52 107.941 19.74C107.691 19.96 107.361 20.07 106.951 20.07C106.54 20.07 106.203 19.9527 105.939 19.718C105.689 19.4833 105.565 19.1753 105.565 18.794V6.32C105.565 5.924 105.682 5.60867 105.917 5.374C106.166 5.13933 106.496 5.022 106.907 5.022C107.317 5.022 107.647 5.13933 107.897 5.374C108.146 5.60867 108.271 5.924 108.271 6.32V6.87C108.593 6.26867 109.055 5.80667 109.657 5.484C110.273 5.14667 110.969 4.978 111.747 4.978ZM111.021 14.042C111.886 14.042 112.561 13.7487 113.045 13.162C113.529 12.5607 113.771 11.7173 113.771 10.632C113.771 9.51733 113.529 8.652 113.045 8.036C112.561 7.42 111.886 7.112 111.021 7.112C110.141 7.112 109.459 7.41267 108.975 8.014C108.505 8.61533 108.271 9.47333 108.271 10.588C108.271 11.688 108.505 12.5387 108.975 13.14C109.459 13.7413 110.141 14.042 111.021 14.042Z" fill="#0460BC"/>
</svg>
